<svg width="228" height="86" viewBox="0 0 228 86" fill="none" xmlns="http://www.w3.org/2000/svg">
<mask id="path-1-inside-1_156_457" fill="white">
<path d="M0 43C0 20.9086 17.9086 3 40 3C62.0914 3 80 20.9086 80 43C80 65.0914 62.0914 83 40 83C17.9086 83 0 65.0914 0 43Z"/>
</mask>
<path d="M40 3C44.1953 3.16523 48.3278 3.97715 52.2183 5.39957C67.9493 10.9687 78.6967 26.9314 78.125 43C78.1471 63.2992 59.9317 80.9654 40 80.5C20.0683 80.9654 1.85285 63.2992 1.875 43C1.30332 26.9314 12.0507 10.9687 27.7817 5.39957C31.6722 3.97715 35.8047 3.16523 40 3C35.8052 2.83175 31.5673 3.32772 27.4883 4.49601C11.0076 8.9702 -1.80246 25.2884 -1.875 43C-1.875 43 -1.875 43 -1.875 43C-2.88898 65.3137 17.3188 86.0707 40 85.5C62.6812 86.0707 82.889 65.3137 81.875 43C81.875 43 81.875 43 81.875 43C81.8025 25.2884 68.9924 8.9702 52.5117 4.49601C48.4328 3.32772 44.1948 2.83175 40 3ZM40 3" fill="#E6A4A4" mask="url(#path-1-inside-1_156_457)"/>
<path d="M75 60.9133C75 60.9133 75 60.9133 75 60.9133C73.8253 60.4028 72.7362 59.9381 71.591 59.4643C61.4624 55.5409 50.4151 50.7382 39.1726 53.7883C34.6064 55.126 30.4932 57.3023 25.9852 58.4213C19.9 59.9862 12.974 61.3357 7.40121 57.926C6.40455 57.2426 5.48329 56.3542 5.01173 55.2156C5.01173 55.2156 5.01173 55.2156 5.01173 55.2156C5.42087 56.381 6.30753 57.3346 7.2901 58.0808C12.8282 61.8519 20.0078 60.7151 26.1941 59.2515C30.8099 58.202 35.0436 56.0308 39.4389 54.7506C50.1373 51.7983 61.2058 56.2012 71.5217 59.6417C72.6877 60.0591 73.8 60.4647 75 60.9133Z" fill="#E6A4A4"/>
<path d="M17.3273 56.995C16.0725 55.6499 15.0239 54.2144 14.1638 52.6175C10.1931 45.4611 11.7423 36.1371 17.011 30.1696C19.6091 27.1911 23.288 24.9544 27.2154 24.9498C31.1578 24.8948 34.7276 27.2973 37.179 30.3699C38.066 31.4631 38.8282 32.6017 39.5624 33.8815L40.1041 34.8332L40.4635 33.7977C41.5691 30.3988 44.2281 27.418 47.7675 26.8372C51.2763 26.2001 54.9297 27.7509 57.5065 30.2447C62.8294 35.3704 63.8669 43.5597 62.4468 50.7194C62.1126 52.4785 61.6524 54.2081 61.07 55.9568C61.7152 54.2303 62.238 52.5141 62.6329 50.7579C64.2919 43.6225 63.5251 35.2016 58.0373 29.7006C55.3785 27.0354 51.5022 25.2745 47.6093 25.932C43.6725 26.5268 40.6936 29.8687 39.5245 33.4728L40.4255 33.3891C39.6715 32.0664 38.8829 30.8828 37.9548 29.7388C35.404 26.5318 31.5245 23.9031 27.2083 24.0005C22.9154 24.048 19.0589 26.5077 16.4071 29.6487C11.0229 35.9461 9.73645 45.6187 13.9979 52.7103C14.9191 54.2934 16.0247 55.6963 17.3273 56.995Z" fill="#E6A4A4"/>
<path d="M39.8069 33.6408C39.9319 33.6371 40.0568 33.6334 40.1818 33.6297C40.2016 32.8766 40.2968 32.1585 40.4716 31.4575C41.1474 28.6188 43.2987 26.3527 45.9432 25.2927C50.6269 23.3342 56.3368 25.1503 59.6159 29.0185C63.0111 32.8851 64.3883 38.1562 64.7606 43.3352C64.8124 44.0577 64.8459 44.8041 64.8598 45.5747C64.9848 45.5747 65.1098 45.5747 65.2348 45.5747C65.2487 44.7976 65.2419 44.043 65.2155 43.3107C65.016 38.066 63.7807 32.6065 60.2682 28.4521C56.8802 24.2992 50.7091 22.2153 45.5627 24.3679C42.647 25.5171 40.3152 28.2459 39.8834 31.3391C39.7644 32.101 39.7427 32.8634 39.8069 33.6408Z" fill="#E6A4A4"/>
<path d="M104.082 25.048L104.898 24.52C107.65 24.552 109.762 25.048 111.234 26.008C112.738 26.936 113.49 28.328 113.49 30.184C113.49 31.56 113.09 32.776 112.29 33.832C111.49 34.888 110.386 35.72 108.978 36.328C107.602 36.904 106.018 37.192 104.226 37.192C103.682 37.192 103.01 37.16 102.21 37.096C101.41 37.064 100.594 37.032 99.7616 37C98.9296 36.936 98.1616 36.904 97.4576 36.904C96.4976 36.904 95.5536 36.92 94.6256 36.952C93.7296 36.984 92.9136 37 92.1776 37C92.1136 37 92.0816 36.904 92.0816 36.712C92.0816 36.52 92.1136 36.424 92.1776 36.424C93.1376 36.424 93.8416 36.344 94.2896 36.184C94.7696 36.024 95.0896 35.704 95.2496 35.224C95.4096 34.744 95.4896 34.04 95.4896 33.112V18.424C95.4896 17.048 95.2976 16.152 94.9136 15.736C94.5296 15.32 93.6336 15.112 92.2256 15.112C92.1616 15.112 92.1296 15.016 92.1296 14.824C92.1296 14.632 92.1616 14.536 92.2256 14.536C92.9616 14.536 93.7776 14.568 94.6736 14.632C95.5696 14.664 96.4976 14.68 97.4576 14.68C98.4176 14.68 99.4256 14.632 100.482 14.536C101.538 14.44 102.578 14.392 103.602 14.392C105.906 14.392 107.714 14.808 109.026 15.64C110.37 16.44 111.042 17.592 111.042 19.096C111.042 20.504 110.434 21.736 109.218 22.792C108.002 23.848 106.29 24.6 104.082 25.048ZM102.402 15.016C101.314 15.016 100.578 15.24 100.194 15.688C99.8096 16.104 99.6176 17.048 99.6176 18.52V24.712L97.8896 24.424C98.6576 24.488 99.3616 24.536 100.002 24.568C100.642 24.568 101.25 24.568 101.826 24.568C102.946 24.568 103.874 24.472 104.61 24.28C105.378 24.056 105.938 23.64 106.29 23.032C106.674 22.392 106.866 21.448 106.866 20.2C106.866 18.376 106.482 17.064 105.714 16.264C104.946 15.432 103.842 15.016 102.402 15.016ZM103.362 36.424C105.346 36.424 106.786 35.976 107.682 35.08C108.61 34.184 109.074 32.936 109.074 31.336C109.074 29.544 108.498 28.12 107.346 27.064C106.194 25.976 104.242 25.432 101.49 25.432C100.914 25.432 100.322 25.448 99.7136 25.48C99.1056 25.512 98.4976 25.592 97.8896 25.72L99.6176 25.144V33.112C99.6176 34.264 99.8576 35.112 100.338 35.656C100.818 36.168 101.826 36.424 103.362 36.424ZM128.112 36.424C128.176 36.424 128.208 36.52 128.208 36.712C128.208 36.904 128.176 37 128.112 37C127.376 37 126.56 36.984 125.664 36.952C124.8 36.92 123.824 36.904 122.736 36.904C121.776 36.904 120.832 36.92 119.904 36.952C118.976 36.984 118.144 37 117.408 37C117.344 37 117.312 36.904 117.312 36.712C117.312 36.52 117.344 36.424 117.408 36.424C118.336 36.424 119.024 36.344 119.472 36.184C119.952 36.024 120.272 35.704 120.432 35.224C120.592 34.744 120.672 34.04 120.672 33.112V18.424C120.672 17.048 120.464 16.152 120.048 15.736C119.664 15.32 118.8 15.112 117.456 15.112C117.392 15.112 117.36 15.016 117.36 14.824C117.36 14.632 117.392 14.536 117.456 14.536C118.192 14.536 119.008 14.568 119.904 14.632C120.832 14.664 121.776 14.68 122.736 14.68C123.632 14.68 124.624 14.632 125.712 14.536C126.832 14.44 127.808 14.392 128.64 14.392C131.008 14.392 132.8 14.792 134.016 15.592C135.264 16.392 135.888 17.544 135.888 19.048C135.888 20.392 135.456 21.624 134.592 22.744C133.728 23.832 132.56 24.712 131.088 25.384C129.616 26.024 127.952 26.344 126.096 26.344C125.68 26.344 125.232 26.328 124.752 26.296C124.304 26.264 123.872 26.216 123.456 26.152L123.408 25.144C123.856 25.272 124.288 25.368 124.704 25.432C125.152 25.464 125.728 25.48 126.432 25.48C128.416 25.48 129.744 25.016 130.416 24.088C131.12 23.16 131.472 21.912 131.472 20.344C131.472 16.952 130.144 15.256 127.488 15.256C126.4 15.256 125.696 15.496 125.376 15.976C125.088 16.424 124.944 17.272 124.944 18.52V33.112C124.944 34.04 125.008 34.744 125.136 35.224C125.296 35.704 125.6 36.024 126.048 36.184C126.528 36.344 127.216 36.424 128.112 36.424ZM142.656 36.424C142.752 36.424 142.8 36.52 142.8 36.712C142.8 36.904 142.752 37 142.656 37C140.864 37 139.36 37 138.144 37C136.928 37 136.064 37 135.552 37C135.04 37 134.096 36.008 132.72 34.024C131.376 32.008 129.792 29.288 127.968 25.864L131.328 24.856C133.12 27.8 134.64 30.12 135.888 31.816C137.168 33.48 138.336 34.664 139.392 35.368C140.48 36.072 141.568 36.424 142.656 36.424ZM164.173 19.816C164.173 18.152 163.869 16.952 163.261 16.216C162.653 15.48 161.629 15.112 160.189 15.112C160.093 15.112 160.045 15.016 160.045 14.824C160.045 14.632 160.093 14.536 160.189 14.536C160.893 14.536 161.597 14.568 162.301 14.632C163.037 14.664 163.837 14.68 164.701 14.68C165.405 14.68 166.125 14.664 166.861 14.632C167.597 14.568 168.253 14.536 168.829 14.536C168.893 14.536 168.925 14.632 168.925 14.824C168.925 15.016 168.893 15.112 168.829 15.112C167.549 15.112 166.637 15.48 166.093 16.216C165.549 16.952 165.277 18.152 165.277 19.816V28.168C165.277 31.176 164.445 33.512 162.781 35.176C161.117 36.808 158.909 37.624 156.157 37.624C154.397 37.624 152.765 37.272 151.261 36.568C149.757 35.864 148.557 34.84 147.661 33.496C146.765 32.152 146.317 30.536 146.317 28.648V18.424C146.317 17.048 146.109 16.152 145.693 15.736C145.309 15.32 144.429 15.112 143.053 15.112C142.957 15.112 142.909 15.016 142.909 14.824C142.909 14.632 142.957 14.536 143.053 14.536C143.757 14.536 144.557 14.568 145.453 14.632C146.381 14.664 147.325 14.68 148.285 14.68C149.309 14.68 150.269 14.664 151.165 14.632C152.093 14.568 152.909 14.536 153.613 14.536C153.709 14.536 153.757 14.632 153.757 14.824C153.757 15.016 153.709 15.112 153.613 15.112C152.237 15.112 151.341 15.336 150.925 15.784C150.541 16.232 150.349 17.144 150.349 18.52V27.4C150.349 29.416 150.669 31.048 151.309 32.296C151.949 33.512 152.813 34.408 153.901 34.984C154.989 35.528 156.173 35.8 157.453 35.8C159.501 35.8 161.133 35.176 162.349 33.928C163.565 32.648 164.173 30.76 164.173 28.264V19.816ZM174.507 31.192L174.843 15.592L175.803 15.736L175.467 31.192C175.435 33.016 175.691 34.344 176.235 35.176C176.811 36.008 177.707 36.424 178.923 36.424C179.019 36.424 179.067 36.52 179.067 36.712C179.067 36.904 179.019 37 178.923 37C178.347 37 177.739 36.984 177.099 36.952C176.459 36.92 175.755 36.904 174.987 36.904C174.251 36.904 173.547 36.92 172.875 36.952C172.203 36.984 171.547 37 170.907 37C170.843 37 170.811 36.904 170.811 36.712C170.811 36.52 170.843 36.424 170.907 36.424C172.155 36.424 173.051 36.008 173.595 35.176C174.171 34.344 174.475 33.016 174.507 31.192ZM201.195 36.424C201.259 36.424 201.291 36.52 201.291 36.712C201.291 36.904 201.259 37 201.195 37C200.523 37 199.755 36.984 198.891 36.952C198.059 36.92 197.179 36.904 196.251 36.904C195.163 36.904 194.155 36.92 193.227 36.952C192.331 36.984 191.499 37 190.731 37C190.667 37 190.635 36.904 190.635 36.712C190.635 36.52 190.667 36.424 190.731 36.424C191.723 36.424 192.459 36.344 192.939 36.184C193.419 36.024 193.739 35.704 193.899 35.224C194.091 34.744 194.155 34.04 194.091 33.112L193.275 16.552L194.475 15.112L185.595 36.664C185.563 36.792 185.451 36.856 185.259 36.856C185.067 36.856 184.939 36.792 184.875 36.664L175.563 18.52C174.827 17.048 174.059 16.12 173.259 15.736C172.491 15.32 171.787 15.112 171.147 15.112C171.051 15.112 171.003 15.016 171.003 14.824C171.003 14.632 171.051 14.536 171.147 14.536C171.723 14.536 172.347 14.552 173.019 14.584C173.691 14.584 174.235 14.584 174.651 14.584C175.291 14.584 175.835 14.584 176.283 14.584C176.763 14.552 177.131 14.536 177.387 14.536C177.835 14.536 178.187 14.696 178.443 15.016C178.731 15.304 179.131 15.976 179.643 17.032L187.131 31.576L185.211 35.32L193.275 15.736C193.403 15.384 193.595 15.096 193.851 14.872C194.139 14.648 194.427 14.536 194.715 14.536C194.971 14.536 195.355 14.552 195.867 14.584C196.379 14.584 196.939 14.584 197.547 14.584C198.347 14.584 198.987 14.584 199.467 14.584C199.979 14.552 200.507 14.536 201.051 14.536C201.115 14.536 201.147 14.632 201.147 14.824C201.147 15.016 201.115 15.112 201.051 15.112C199.899 15.112 199.019 15.304 198.411 15.688C197.835 16.072 197.579 16.952 197.643 18.328L198.411 33.112C198.475 34.04 198.571 34.744 198.699 35.224C198.827 35.704 199.083 36.024 199.467 36.184C199.851 36.344 200.427 36.424 201.195 36.424ZM204.629 37C204.565 37 204.533 36.904 204.533 36.712C204.533 36.52 204.565 36.424 204.629 36.424C205.557 36.424 206.245 36.344 206.693 36.184C207.173 36.024 207.493 35.704 207.653 35.224C207.813 34.744 207.893 34.04 207.893 33.112V18.424C207.893 17.496 207.813 16.808 207.653 16.36C207.493 15.88 207.173 15.56 206.693 15.4C206.245 15.208 205.557 15.112 204.629 15.112C204.565 15.112 204.533 15.016 204.533 14.824C204.533 14.632 204.565 14.536 204.629 14.536H221.621C221.941 14.536 222.101 14.664 222.101 14.92C222.101 15.72 222.117 16.648 222.149 17.704C222.181 18.76 222.197 19.592 222.197 20.2C222.197 20.296 222.101 20.344 221.909 20.344C221.749 20.344 221.653 20.296 221.621 20.2C221.205 18.76 220.421 17.56 219.269 16.6C218.117 15.64 216.885 15.16 215.573 15.16H214.901C214.069 15.16 213.445 15.256 213.029 15.448C212.613 15.608 212.341 15.928 212.213 16.408C212.085 16.856 212.021 17.544 212.021 18.472V32.92C212.021 33.816 212.085 34.504 212.213 34.984C212.341 35.464 212.613 35.8 213.029 35.992C213.445 36.152 214.069 36.232 214.901 36.232H216.053C217.013 36.232 217.941 35.992 218.837 35.512C219.765 35 220.597 34.328 221.333 33.496C222.069 32.632 222.629 31.672 223.013 30.616C223.045 30.52 223.141 30.472 223.301 30.472C223.461 30.472 223.541 30.52 223.541 30.616C223.477 31.352 223.397 32.248 223.301 33.304C223.237 34.36 223.205 35.352 223.205 36.28C223.205 36.76 222.965 37 222.485 37H204.629ZM219.701 26.728C219.541 26.728 219.125 26.68 218.453 26.584C217.813 26.456 216.837 26.344 215.525 26.248C214.213 26.152 212.437 26.104 210.197 26.104V25C212.437 25 214.213 24.952 215.525 24.856C216.837 24.76 217.813 24.68 218.453 24.616C219.125 24.52 219.541 24.472 219.701 24.472C219.797 24.472 219.861 24.584 219.893 24.808C219.957 25.032 219.989 25.272 219.989 25.528C219.989 25.816 219.957 26.088 219.893 26.344C219.861 26.6 219.797 26.728 219.701 26.728ZM210.821 11.944C210.693 12.008 210.597 11.96 210.533 11.8C210.469 11.608 210.485 11.496 210.581 11.464C211.861 10.664 213.013 9.848 214.037 9.016C215.093 8.152 216.149 7.352 217.205 6.616C217.333 6.52 217.669 6.536 218.213 6.664C218.757 6.792 219.333 6.984 219.941 7.24C220.549 7.464 221.013 7.672 221.333 7.864C221.685 8.056 221.733 8.184 221.477 8.248C219.333 8.76 217.429 9.32 215.765 9.928C214.101 10.536 212.453 11.208 210.821 11.944ZM123.62 56.96C124.74 56.96 126.004 57.088 127.412 57.344C128.82 57.568 129.988 57.904 130.916 58.352C131.14 58.448 131.284 58.544 131.348 58.64C131.412 58.736 131.444 58.912 131.444 59.168L131.78 64.112C131.78 64.208 131.7 64.272 131.54 64.304C131.38 64.336 131.268 64.288 131.204 64.16C130.212 62.048 129.044 60.48 127.7 59.456C126.356 58.432 124.756 57.92 122.9 57.92C121.3 57.92 119.924 58.352 118.772 59.216C117.652 60.048 116.788 61.232 116.18 62.768C115.572 64.272 115.268 66 115.268 67.952C115.268 69.36 115.428 70.752 115.748 72.128C116.1 73.504 116.628 74.768 117.332 75.92C118.036 77.072 118.932 77.984 120.02 78.656C121.14 79.328 122.484 79.664 124.052 79.664C125.812 79.664 127.284 79.152 128.468 78.128C129.684 77.104 130.756 75.488 131.684 73.28C131.716 73.152 131.812 73.104 131.972 73.136C132.132 73.168 132.212 73.232 132.212 73.328L131.732 78.416C131.7 78.672 131.652 78.848 131.588 78.944C131.524 79.04 131.348 79.152 131.06 79.28C129.684 79.76 128.34 80.096 127.028 80.288C125.716 80.48 124.5 80.576 123.38 80.576C120.948 80.576 118.884 80.208 117.188 79.472C115.524 78.704 114.18 77.712 113.156 76.496C112.164 75.28 111.444 73.984 110.996 72.608C110.548 71.232 110.324 69.92 110.324 68.672C110.324 66.432 110.9 64.432 112.052 62.672C113.236 60.912 114.82 59.52 116.804 58.496C118.82 57.472 121.092 56.96 123.62 56.96ZM143.598 61.472V75.92C143.598 77.168 143.806 78.016 144.222 78.464C144.67 78.88 145.582 79.088 146.958 79.088H148.398C150.19 79.088 151.742 78.512 153.054 77.36C154.398 76.176 155.358 74.624 155.934 72.704C155.966 72.64 156.062 72.624 156.222 72.656C156.414 72.656 156.51 72.704 156.51 72.8C156.382 73.632 156.286 74.656 156.222 75.872C156.19 77.088 156.174 78.224 156.174 79.28C156.174 79.76 155.934 80 155.454 80H136.398C136.334 80 136.302 79.904 136.302 79.712C136.302 79.52 136.334 79.424 136.398 79.424C137.262 79.424 137.902 79.344 138.318 79.184C138.766 79.024 139.07 78.704 139.23 78.224C139.39 77.744 139.47 77.04 139.47 76.112V61.424C139.47 60.496 139.39 59.808 139.23 59.36C139.07 58.88 138.766 58.56 138.318 58.4C137.902 58.208 137.246 58.112 136.35 58.112C136.318 58.112 136.302 58.016 136.302 57.824C136.302 57.632 136.334 57.536 136.398 57.536C137.134 57.536 137.95 57.568 138.846 57.632C139.774 57.664 140.718 57.68 141.678 57.68C142.734 57.68 143.71 57.664 144.606 57.632C145.534 57.568 146.334 57.536 147.006 57.536C147.102 57.536 147.15 57.632 147.15 57.824C147.15 58.016 147.102 58.112 147.006 58.112C146.046 58.112 145.326 58.208 144.846 58.4C144.366 58.56 144.03 58.88 143.838 59.36C143.678 59.84 143.598 60.544 143.598 61.472ZM165.765 69.488L166.485 68.384H175.269L175.605 69.488H165.765ZM184.437 79.424C184.565 79.424 184.629 79.52 184.629 79.712C184.629 79.904 184.565 80 184.437 80C183.477 80 182.485 79.968 181.461 79.904C180.437 79.84 179.477 79.808 178.581 79.808C177.813 79.808 177.045 79.84 176.277 79.904C175.509 79.968 174.757 80 174.021 80C173.893 80 173.829 79.904 173.829 79.712C173.829 79.52 173.893 79.424 174.021 79.424C175.301 79.424 176.005 79.152 176.133 78.608C176.261 78.064 176.037 77.184 175.461 75.968L168.981 61.952L170.757 59.168L164.565 74.096C163.733 76.08 163.541 77.472 163.989 78.272C164.437 79.04 165.493 79.424 167.157 79.424C167.317 79.424 167.397 79.52 167.397 79.712C167.397 79.904 167.317 80 167.157 80C166.357 80 165.669 79.968 165.093 79.904C164.549 79.84 163.765 79.808 162.741 79.808C161.621 79.808 160.709 79.84 160.005 79.904C159.333 79.968 158.517 80 157.557 80C157.429 80 157.365 79.904 157.365 79.712C157.365 79.52 157.429 79.424 157.557 79.424C158.517 79.424 159.301 79.296 159.909 79.04C160.517 78.752 161.093 78.192 161.637 77.36C162.181 76.528 162.789 75.296 163.461 73.664L170.565 56.816C170.629 56.688 170.725 56.624 170.853 56.624C170.981 56.624 171.061 56.688 171.093 56.816L178.821 73.424C179.589 75.088 180.229 76.352 180.741 77.216C181.285 78.08 181.829 78.672 182.373 78.992C182.949 79.28 183.637 79.424 184.437 79.424ZM190.844 58.4C189.884 58.4 189.02 58.608 188.252 59.024C187.516 59.44 186.876 60.064 186.332 60.896C185.788 61.728 185.324 62.784 184.94 64.064C184.908 64.16 184.812 64.208 184.652 64.208C184.492 64.208 184.412 64.16 184.412 64.064C184.476 63.584 184.556 62.864 184.652 61.904C184.748 60.944 184.828 59.952 184.892 58.928C184.988 57.904 185.036 57.088 185.036 56.48C185.036 56.32 185.116 56.24 185.276 56.24C185.468 56.24 185.564 56.32 185.564 56.48C185.564 56.96 185.868 57.248 186.476 57.344C187.116 57.408 187.66 57.44 188.108 57.44C189.132 57.472 190.268 57.504 191.516 57.536C192.764 57.536 194.044 57.536 195.356 57.536C196.86 57.536 198.092 57.52 199.052 57.488C200.044 57.456 200.94 57.44 201.74 57.44C202.86 57.44 203.74 57.376 204.38 57.248C205.052 57.12 205.468 56.8 205.628 56.288C205.66 56.192 205.756 56.144 205.916 56.144C206.108 56.144 206.204 56.192 206.204 56.288C206.172 56.736 206.124 57.328 206.06 58.064C206.028 58.8 205.98 59.568 205.916 60.368C205.884 61.168 205.852 61.904 205.82 62.576C205.82 63.216 205.82 63.712 205.82 64.064C205.82 64.16 205.724 64.208 205.532 64.208C205.34 64.208 205.244 64.16 205.244 64.064C205.116 62.912 204.812 61.904 204.332 61.04C203.852 60.176 203.228 59.52 202.46 59.072C201.724 58.624 200.876 58.4 199.916 58.4C198.924 58.4 198.268 58.608 197.948 59.024C197.628 59.44 197.468 60.24 197.468 61.424V76.112C197.468 77.04 197.548 77.744 197.708 78.224C197.9 78.704 198.252 79.024 198.764 79.184C199.308 79.344 200.124 79.424 201.212 79.424C201.308 79.424 201.356 79.52 201.356 79.712C201.356 79.904 201.308 80 201.212 80C200.412 80 199.516 79.984 198.524 79.952C197.532 79.92 196.444 79.904 195.26 79.904C194.172 79.904 193.116 79.92 192.092 79.952C191.068 79.984 190.156 80 189.356 80C189.292 80 189.26 79.904 189.26 79.712C189.26 79.52 189.292 79.424 189.356 79.424C190.444 79.424 191.26 79.344 191.804 79.184C192.348 79.024 192.716 78.704 192.908 78.224C193.1 77.744 193.196 77.04 193.196 76.112V61.328C193.196 60.528 193.132 59.92 193.004 59.504C192.908 59.088 192.7 58.8 192.38 58.64C192.06 58.48 191.548 58.4 190.844 58.4Z" fill="#141010"/>
</svg>
